<?xml version="1.0" encoding="utf-8"?>
<!-- Generator: Adobe Illustrator 24.0.1, SVG Export Plug-In . SVG Version: 6.00 Build 0)  -->
<svg version="1.1" id="图层_1" xmlns="http://www.w3.org/2000/svg" xmlns:xlink="http://www.w3.org/1999/xlink" x="0px" y="0px"
	 viewBox="0 0 20 20" style="enable-background:new 0 0 20 20;" xml:space="preserve">
<style type="text/css">
	.st0{fill:#94BCFF;}
	.st1{fill:#0A59DC;}
	.st2{fill:#2A79FF;}
	.st3{fill:#FFFFFF;}
	.st4{fill:#0052CC;}
</style>
<g id="组_2002" transform="translate(-9736.054 -3831)">
	<g id="txt" transform="translate(9736.054 3831)">
		<path id="路径_225" class="st0" d="M17.8,4.1V20H4.7c-1.4,0-2.5-1.1-2.5-2.5V0h11.3L17.8,4.1z"/>
		<path id="路径_226" class="st1" d="M13.6,0v4.4h4.2V4L13.6,0z"/>
		<path id="路径_227" class="st2" d="M0.7,9.6h18.5v7.9H0.7V9.6z M13.6,0v4.1h4.2L13.6,0z"/>
	</g>
	<path id="路径_234" class="st3" d="M9741.7,3847.3c0.6,0,1.2-0.2,1.6-0.6l-0.3-0.5c-0.3,0.3-0.8,0.5-1.2,0.5c-1,0-1.6-0.8-1.6-2
		c-0.1-1,0.6-1.9,1.5-2c0,0,0.1,0,0.1,0c0.4,0,0.8,0.2,1.1,0.5l0.4-0.5c-0.4-0.4-0.9-0.6-1.5-0.6c-1.3,0-2.4,1.1-2.4,2.4
		c0,0.1,0,0.1,0,0.2c-0.1,1.3,0.8,2.4,2.1,2.6C9741.6,3847.3,9741.7,3847.3,9741.7,3847.3L9741.7,3847.3z M9745.8,3847.3
		c1.2,0,1.8-0.7,1.8-1.5c0-0.9-0.8-1.2-1.6-1.5l-0.2-0.1c-0.5-0.2-0.9-0.4-0.9-0.8c0-0.4,0.3-0.8,1-0.8c0.4,0,0.8,0.2,1.2,0.4
		l0.4-0.5c-0.4-0.3-1-0.5-1.5-0.6c-1.1,0-1.7,0.6-1.7,1.4c0,0.8,0.6,1.1,1.3,1.4l0.4,0.2c0.5,0.2,1,0.4,1,0.9s-0.3,0.8-1.1,0.8
		c-0.6,0-1.1-0.2-1.5-0.6l-0.4,0.5C9744.5,3847.1,9745.1,3847.3,9745.8,3847.3L9745.8,3847.3z M9750,3847.2l-1.8-5h0.8l1,2.9
		c0.2,0.5,0.3,1,0.5,1.5h0l0.3-1c0.1-0.2,0.1-0.3,0.2-0.5l1-2.9h0.8l-1.8,5H9750z"/>
	<path id="路径_235" class="st4" d="M9742,3836.8h8.1v-0.6h-8.1V3836.8z M9742,3839.3h8.1v-0.6h-8.1V3839.3z"/>
</g>
</svg>
