<?xml version="1.0" encoding="utf-8"?>
<!-- Generator: Adobe Illustrator 24.0.0, SVG Export Plug-In . SVG Version: 6.00 Build 0)  -->
<svg version="1.1" id="图层_1" xmlns="http://www.w3.org/2000/svg" xmlns:xlink="http://www.w3.org/1999/xlink" x="0px" y="0px"
	 viewBox="0 0 20 20" style="enable-background:new 0 0 20 20;" xml:space="preserve">
<style type="text/css">
	.st0{clip-path:url(#SVGID_2_);}
	.st1{clip-path:url(#SVGID_4_);fill:#B6F2DF;}
	.st2{clip-path:url(#SVGID_6_);}
	.st3{clip-path:url(#SVGID_8_);fill:#00704D;}
	.st4{clip-path:url(#SVGID_10_);}
	.st5{clip-path:url(#SVGID_12_);fill:#00704D;}
	.st6{fill-rule:evenodd;clip-rule:evenodd;fill:#00A77C;}
	.st7{fill:#FFFFFF;}
</style>
<g>
	<g>
		<defs>
			<path id="SVGID_1_" d="M17.8,4.1V20H4.7c-1.4,0-2.5-1.1-2.5-2.5V0h11.3L17.8,4.1z"/>
		</defs>
		<use xlink:href="#SVGID_1_"  style="overflow:visible;fill-rule:evenodd;clip-rule:evenodd;fill:#B6F2DF;"/>
		<clipPath id="SVGID_2_">
			<use xlink:href="#SVGID_1_"  style="overflow:visible;"/>
		</clipPath>
		<g class="st0">
			<defs>
				<rect id="SVGID_3_" x="-397.8" y="-269.5" width="650" height="437.8"/>
			</defs>
			<use xlink:href="#SVGID_3_"  style="overflow:visible;fill:#B6F2DF;"/>
			<clipPath id="SVGID_4_">
				<use xlink:href="#SVGID_3_"  style="overflow:visible;"/>
			</clipPath>
			<rect x="0" y="-2.3" class="st1" width="20.1" height="24.5"/>
		</g>
	</g>
	<g>
		<defs>
			<polygon id="SVGID_5_" points="13.6,0 13.6,4.4 17.8,4.4 17.8,4 			"/>
		</defs>
		<use xlink:href="#SVGID_5_"  style="overflow:visible;fill-rule:evenodd;clip-rule:evenodd;fill:#00704D;"/>
		<clipPath id="SVGID_6_">
			<use xlink:href="#SVGID_5_"  style="overflow:visible;"/>
		</clipPath>
		<g class="st2">
			<defs>
				<rect id="SVGID_7_" x="-397.8" y="-269.5" width="650" height="437.8"/>
			</defs>
			<use xlink:href="#SVGID_7_"  style="overflow:visible;fill:#00704D;"/>
			<clipPath id="SVGID_8_">
				<use xlink:href="#SVGID_7_"  style="overflow:visible;"/>
			</clipPath>
			<rect x="11.4" y="-2.3" class="st3" width="8.7" height="8.9"/>
		</g>
	</g>
	<g>
		<defs>
			<path id="SVGID_9_" d="M6.4,5.8h8.1V5.2H6.4V5.8z M6.4,8.3h8.1V7.7H6.4V8.3z"/>
		</defs>
		<use xlink:href="#SVGID_9_"  style="overflow:visible;fill-rule:evenodd;clip-rule:evenodd;fill:#00704D;"/>
		<clipPath id="SVGID_10_">
			<use xlink:href="#SVGID_9_"  style="overflow:visible;"/>
		</clipPath>
		<g class="st4">
			<defs>
				<rect id="SVGID_11_" x="-397.8" y="-269.5" width="650" height="437.8"/>
			</defs>
			<use xlink:href="#SVGID_11_"  style="overflow:visible;fill:#00704D;"/>
			<clipPath id="SVGID_12_">
				<use xlink:href="#SVGID_11_"  style="overflow:visible;"/>
			</clipPath>
			<rect x="4.1" y="2.9" class="st5" width="12.6" height="7.6"/>
		</g>
	</g>
	<path class="st6" d="M0.7,17.6h18.5V9.6H0.7V17.6z M13.6,0v4.1h4.2L13.6,0z"/>
	<g>
		<path class="st7" d="M5.5,11h1.4c1.6,0,2.6,0.9,2.6,2.6c0,1.7-0.9,2.7-2.5,2.7H5.5V11z M6.8,15.6c1.1,0,1.8-0.7,1.8-2
			c0-1.3-0.6-2-1.8-2H6.3v4H6.8z"/>
		<path class="st7" d="M10.5,11h1l1,2.7c0.1,0.4,0.2,0.7,0.4,1.1h0c0.1-0.4,0.2-0.7,0.3-1.1l1-2.7h1v5.3h-0.8v-2.6
			c0-0.5,0.1-1.2,0.1-1.7h0L14,13.2l-0.9,2.5h-0.5l-0.9-2.5L11.2,12h0c0,0.5,0.1,1.2,0.1,1.7v2.6h-0.8V11z"/>
	</g>
</g>
</svg>
