<?xml version="1.0" encoding="utf-8"?>
<!-- Generator: Adobe Illustrator 24.0.1, SVG Export Plug-In . SVG Version: 6.00 Build 0)  -->
<svg version="1.1" id="图层_1" xmlns="http://www.w3.org/2000/svg" xmlns:xlink="http://www.w3.org/1999/xlink" x="0px" y="0px"
	 viewBox="0 0 20 20" style="enable-background:new 0 0 20 20;" xml:space="preserve">
<style type="text/css">
	.st0{fill:#F95452;}
	.st1{fill:#CC2929;}
	.st2{fill:#F98585;}
	.st3{fill:#FFFFFF;}
</style>
<g>
	<path id="路径_214" style="fill:#F95452" class="st0" d="M17.8,4v16H4.6c-1.4,0-2.5-1.1-2.5-2.5V0h11.4L17.8,4L17.8,4z"/>
	<path id="路径_215" class="st1" style="fill:#CC2929" d="M13.6,0v4.5h4.3V4.1L13.6,0z"/>
	<path id="路径_216" class="st2"  style="fill:#F98585" d="M13.6,0v4h4.3L13.6,0z"/>
	<path id="路径_217" class="st1"  style="fill:#CC2929" d="M8,0h3.7v16.8H8V0z"/>
	<path id="路径_218" class="st2"  style="fill:#F98585" d="M0.7,9.6h18.7v7.9H0.7V9.6z"/>
	<path id="路径_219" class="st3" style="fill:#FFFFFF"  d="M5.8,11c0.4,0,0.8,0.1,1.2,0.4c0.3,0.3,0.4,0.6,0.4,1c0,0.3-0.1,0.6-0.2,0.8
		c-0.2,0.2-0.4,0.4-0.7,0.5v0c0.1,0,0.3,0.1,0.4,0.1C6.9,14,7,14,7,14.1c0.1,0.1,0.1,0.2,0.1,0.3c0,0.1,0,0.2,0.1,0.4
		c0,0.1,0,0.3,0,0.4c0,0.1,0,0.3,0,0.4c0,0.1,0,0.2,0.1,0.4c0,0.1,0.1,0.2,0.2,0.3H6.8c-0.1-0.1-0.1-0.1-0.1-0.2c0-0.1,0-0.2,0-0.3
		c0-0.1,0-0.2,0-0.4c0-0.1,0-0.3,0-0.4c0-0.1,0-0.2-0.1-0.4c0-0.1-0.1-0.2-0.1-0.3c-0.1-0.1-0.1-0.2-0.2-0.2C6,14,5.8,14,5.7,14H4
		v2.2H3.3V11H5.8z M5.9,13.4c0.1,0,0.3-0.1,0.4-0.1c0.1-0.1,0.2-0.2,0.3-0.3c0.1-0.1,0.1-0.3,0.1-0.5c0-0.2-0.1-0.5-0.2-0.6
		c-0.2-0.2-0.4-0.3-0.7-0.2H4v1.8h1.4C5.6,13.4,5.8,13.4,5.9,13.4L5.9,13.4z M10.5,11l2,5.2h-0.8l-0.6-1.6H9l-0.6,1.6H7.7l2-5.2
		H10.5z M10.9,14.1l-0.9-2.4h0l-0.9,2.4H10.9z M15.4,11c0.4,0,0.8,0.1,1.2,0.4c0.3,0.3,0.4,0.6,0.4,1c0,0.3-0.1,0.6-0.2,0.8
		c-0.2,0.2-0.4,0.4-0.7,0.5v0c0.1,0,0.3,0.1,0.4,0.1c0.1,0.1,0.2,0.1,0.2,0.2c0.1,0.1,0.1,0.2,0.1,0.3c0,0.1,0,0.2,0.1,0.4
		c0,0.1,0,0.3,0,0.4c0,0.1,0,0.3,0,0.4c0,0.1,0,0.2,0.1,0.4c0,0.1,0.1,0.2,0.2,0.3h-0.8c-0.1-0.1-0.1-0.1-0.1-0.2c0-0.1,0-0.2,0-0.3
		c0-0.1,0-0.2,0-0.4c0-0.1,0-0.3,0-0.4c0-0.1,0-0.2-0.1-0.4c0-0.1-0.1-0.2-0.1-0.3c-0.1-0.1-0.1-0.2-0.2-0.2
		C15.6,14,15.5,14,15.4,14h-1.7v2.2H13V11H15.4z M15.6,13.4c0.1,0,0.3-0.1,0.4-0.1c0.1-0.1,0.2-0.2,0.3-0.3c0.1-0.1,0.1-0.3,0.1-0.5
		c0-0.2-0.1-0.5-0.2-0.6c-0.2-0.2-0.4-0.3-0.7-0.2h-1.7v1.8h1.4C15.3,13.4,15.4,13.4,15.6,13.4L15.6,13.4z"/>
	<path id="路径_220" style="fill:#F95452" class="st0" d="M10.4,6.1c0.5,0,0.9,0.5,0.9,1c0,0.5-0.4,0.8-0.9,0.9H9.4c-0.5,0-0.9-0.5-0.9-1
		c0-0.5,0.4-0.8,0.9-0.9H10.4z M10.4,5.1H9.4c-1,0-1.9,0.8-1.9,1.8c0,1,0.8,1.9,1.8,1.9c0,0,0.1,0,0.1,0h0.9c1,0,1.8-0.9,1.8-1.9
		C12.2,5.9,11.4,5.1,10.4,5.1"/>
</g>
</svg>
