<?xml version="1.0" encoding="utf-8"?>
<!-- Generator: Adobe Illustrator 24.0.1, SVG Export Plug-In . SVG Version: 6.00 Build 0)  -->
<svg version="1.1" id="图层_1" xmlns="http://www.w3.org/2000/svg" xmlns:xlink="http://www.w3.org/1999/xlink" x="0px" y="0px"
	 viewBox="0 0 20 20" style="enable-background:new 0 0 20 20;" xml:space="preserve">
<style type="text/css">
	.st0{fill:#BAA4FF;}
	.st1{fill:#722ED1;}
	.st2{fill:#9D64ED;}
	.st3{fill:#FFFFFF;}
</style>
<g>
	<path id="路径_225" class="st0" d="M17.8,4v16H4.7c-1.4,0-2.5-1.1-2.4-2.5V0h11.3L17.8,4z"/>
	<path id="路径_226" class="st1" d="M13.6,0v4.5h4.2V4L13.6,0z"/>
	<path id="路径_227" class="st2" d="M0.7,9.6h18.5v7.9H0.7V9.6z M13.6,0v4h4.2L13.6,0z"/>
	<path id="路径_228" class="st3" d="M3.3,11.3h3.6V12H5.5v3.8H4.7V12H3.3V11.3z M8,11.3h0.9l1,1.6l1.1-1.6h0.9l-1.5,2.2l1.6,2.3
		h-1l-1.1-1.7l-1.1,1.7H7.9l1.6-2.3L8,11.3z M12.9,11.3h3.6V12h-1.4v3.8h-0.8V12h-1.4V11.3z"/>
	<path id="路径_229" class="st1" d="M6.9,3.1H6.3C6.2,3.1,6.1,3.1,6,3C5.9,3,5.9,2.9,5.9,2.8c0-0.1,0-0.2,0.1-0.2
		c0.1-0.1,0.3-0.1,0.4-0.1h1.1c0.1,0,0.2,0,0.3,0.1c0.1,0.1,0.1,0.1,0.1,0.2l1.5,3.6h0.1c0.1,0,0.2,0,0.3,0.1
		c0.1,0.1,0.1,0.1,0.1,0.2c0,0.1,0,0.2-0.1,0.2C9.6,7,9.5,7,9.4,7h-1C8.3,7,8.2,7,8.1,6.9C8,6.9,8,6.8,8,6.7c0-0.1,0-0.2,0.1-0.2
		c0.1,0,0.2-0.1,0.3-0.1h0.3L8.4,5.6H6.5L6.2,6.5h0.4c0.1,0,0.2,0,0.3,0.1C6.9,6.6,7,6.6,7,6.7c0,0.1,0,0.2-0.1,0.2
		C6.8,7,6.6,7,6.5,7h-1C5.4,7,5.3,7,5.2,6.9C5.2,6.9,5.1,6.8,5.1,6.7c0-0.1,0-0.2,0.1-0.2c0.1,0,0.2-0.1,0.3-0.1h0.1L6.9,3.1z
		 M6.7,5.1h1.5l-0.8-2L6.7,5.1z"/>
	<path id="路径_230" class="st1" d="M12.2,3H8.8C8.7,3,8.6,2.9,8.6,2.8v0V2.7c0-0.1,0.1-0.2,0.2-0.2l0,0h3.3
		c0.1,0,0.2,0.1,0.2,0.2v0v0.1C12.4,2.9,12.3,3,12.2,3C12.2,3,12.2,3,12.2,3z M12.2,4.2H9.6C9.5,4.2,9.4,4.1,9.4,4v0V4
		c0-0.1,0.1-0.2,0.2-0.2l0,0h2.6c0.1,0,0.2,0.1,0.2,0.2v0V4C12.4,4.1,12.3,4.2,12.2,4.2C12.2,4.2,12.2,4.2,12.2,4.2z M12.2,5.5h-1.8
		c-0.1,0-0.2-0.1-0.2-0.2v0V5.2c0-0.1,0.1-0.2,0.2-0.2l0,0h1.8c0.1,0,0.2,0.1,0.2,0.2v0v0.1C12.4,5.4,12.3,5.5,12.2,5.5L12.2,5.5
		L12.2,5.5z"/>
</g>
</svg>
