<?xml version="1.0" encoding="utf-8"?>
<!-- Generator: Adobe Illustrator 24.0.0, SVG Export Plug-In . SVG Version: 6.00 Build 0)  -->
<svg version="1.1" id="图层_1" xmlns="http://www.w3.org/2000/svg" xmlns:xlink="http://www.w3.org/1999/xlink" x="0px" y="0px"
	 viewBox="0 0 20 20" style="enable-background:new 0 0 20 20;" xml:space="preserve">
<style type="text/css">
	.st0{clip-path:url(#SVGID_2_);}
	.st1{clip-path:url(#SVGID_4_);fill:#AEFFD4;}
	.st2{clip-path:url(#SVGID_6_);}
	.st3{clip-path:url(#SVGID_8_);fill:#185C37;}
	.st4{clip-path:url(#SVGID_10_);}
	.st5{clip-path:url(#SVGID_12_);fill:#185C37;}
	.st6{fill-rule:evenodd;clip-rule:evenodd;fill:#107C41;}
	.st7{fill:#fff;}
</style>
<g>
	<g>
		<defs>
			<path id="SVGID_1_" d="M17.8,4.1V20H4.7c-1.4,0-2.5-1.1-2.5-2.5V0h11.3L17.8,4.1z"/>
		</defs>
		<use xlink:href="#SVGID_1_"  style="overflow:visible;fill-rule:evenodd;clip-rule:evenodd;fill:#AEFFD4;"/>
		<clipPath id="SVGID_2_">
			<use xlink:href="#SVGID_1_"  style="overflow:visible;"/>
		</clipPath>
		<g class="st0">
			<defs>
				<rect id="SVGID_3_" x="-397.8" y="-269.5" width="650" height="437.8"/>
			</defs>
			<use xlink:href="#SVGID_3_"  style="overflow:visible;fill:#AEFFD4;"/>
			<clipPath id="SVGID_4_">
				<use xlink:href="#SVGID_3_"  style="overflow:visible;"/>
			</clipPath>
			<rect x="0" y="-2.3" class="st1" width="20.1" height="24.5"/>
		</g>
	</g>
	<g>
		<defs>
			<polygon id="SVGID_5_" points="13.6,0 13.6,4.4 17.8,4.4 17.8,4 			"/>
		</defs>
		<use xlink:href="#SVGID_5_"  style="overflow:visible;fill-rule:evenodd;clip-rule:evenodd;fill:#185C37;"/>
		<clipPath id="SVGID_6_">
			<use xlink:href="#SVGID_5_"  style="overflow:visible;"/>
		</clipPath>
		<g class="st2">
			<defs>
				<rect id="SVGID_7_" x="-397.8" y="-269.5" width="650" height="437.8"/>
			</defs>
			<use xlink:href="#SVGID_7_"  style="overflow:visible;fill:#185C37;"/>
			<clipPath id="SVGID_8_">
				<use xlink:href="#SVGID_7_"  style="overflow:visible;"/>
			</clipPath>
			<rect x="11.4" y="-2.3" class="st3" width="8.7" height="8.9"/>
		</g>
	</g>
	<g>
		<defs>
			<path id="SVGID_9_" d="M6.4,5.8h8.1V5.2H6.4V5.8z M6.4,8.3h8.1V7.7H6.4V8.3z"/>
		</defs>
		<use xlink:href="#SVGID_9_"  style="overflow:visible;fill-rule:evenodd;clip-rule:evenodd;fill:#185C37;"/>
		<clipPath id="SVGID_10_">
			<use xlink:href="#SVGID_9_"  style="overflow:visible;"/>
		</clipPath>
		<g class="st4">
			<defs>
				<rect id="SVGID_11_" x="-397.8" y="-269.5" width="650" height="437.8"/>
			</defs>
			<use xlink:href="#SVGID_11_"  style="overflow:visible;fill:#185C37;"/>
			<clipPath id="SVGID_12_">
				<use xlink:href="#SVGID_11_"  style="overflow:visible;"/>
			</clipPath>
			<rect x="4.1" y="2.9" class="st5" width="12.6" height="7.6"/>
		</g>
	</g>
	<rect x="0.7" y="9.6" class="st6" width="18.5" height="7.9"/>
	<polygon class="st6" points="13.6,0 13.6,4.1 17.8,4.1 	"/>
	<g>
		<path class="st7" d="M5.1,13.6L3.5,11h1.2l1.1,2h0L7,11h1.1l-1.6,2.6l1.7,2.7H7l-1.2-2.1h0l-1.2,2.1H3.4L5.1,13.6z"/>
		<path class="st7" d="M12.3,15.4v0.9H9.1V11h1v4.4H12.3z"/>
		<path class="st7" d="M13,16.1v-0.9c0.3,0.1,1,0.2,1.5,0.2c0.7,0,1-0.2,1-0.7c0-0.5-0.2-0.6-1-0.9c-1.1-0.3-1.5-0.6-1.5-1.5
			c0-1.1,0.6-1.5,1.9-1.5c0.6,0,1.1,0.1,1.3,0.2v0.8c-0.3-0.1-0.9-0.2-1.3-0.2c-0.6,0-0.9,0.1-0.9,0.7c0,0.4,0.1,0.5,1,0.7
			c1.2,0.3,1.6,0.7,1.6,1.7c0,1-0.6,1.6-2,1.6C14,16.3,13.3,16.2,13,16.1z"/>
	</g>
</g>
</svg>
