<?xml version="1.0" encoding="utf-8"?>
<!-- Generator: Adobe Illustrator 24.0.1, SVG Export Plug-In . SVG Version: 6.00 Build 0)  -->
<svg version="1.1" id="图层_1" xmlns="http://www.w3.org/2000/svg" xmlns:xlink="http://www.w3.org/1999/xlink" x="0px" y="0px"
	 viewBox="0 0 20 20" style="enable-background:new 0 0 20 20;" xml:space="preserve">
<style type="text/css">
	.st0{fill:#F9BD0F;}
	.st1{fill:#FFDA44;}
	.st2{fill:#FFAA00;}
	.st3{fill:#FFFFFF;}
</style>
<g id="组_2004" transform="translate(-286.387 -458)">
	<g id="组_2003" transform="translate(286.387 458.08)">
		<g id="txt" transform="translate(0 0)">
			<path id="路径_225" class="st0" d="M17.7,4v15.9h-13c-1.4,0-2.4-1.1-2.4-2.5V0h11.3L17.7,4z"/>
			<path id="路径_226" class="st1" d="M13.5,0v4.5h4.2V4L13.5,0z"/>
			<path id="路径_227" class="st2" d="M0.8,9.6h18.4v7.9H0.8V9.6z M13.5,0v4h4.2L13.5,0z"/>
		</g>
	</g>
	<path id="路径_236" class="st3" d="M294.7,468.9v0.6l-2.6,3.9h2.6v0.7h-3.8v-0.6l2.6-3.9H291v-0.8L294.7,468.9L294.7,468.9z
		 M297.2,468.9v5.3h-1.1v-5.3H297.2z M300.8,468.9c0.3,0,0.5,0,0.7,0.1c0.2,0.1,0.4,0.2,0.6,0.3c0.1,0.1,0.2,0.3,0.3,0.5
		c0.1,0.2,0.1,0.4,0.1,0.6c0,0.2-0.1,0.5-0.2,0.7c-0.1,0.2-0.2,0.4-0.4,0.5c-0.2,0.1-0.4,0.2-0.7,0.3c-0.3,0.1-0.5,0.1-0.8,0.1h-0.7
		v2h-1.1v-5.1L300.8,468.9L300.8,468.9z M299.8,471.4h0.5c0.2,0,0.4,0,0.5-0.1c0.2,0,0.2-0.1,0.4-0.2c0.2-0.1,0.2-0.2,0.2-0.3
		c0.1-0.1,0.1-0.3,0.1-0.4c0-0.2,0-0.3-0.1-0.4c0-0.1-0.1-0.2-0.2-0.3c-0.1-0.1-0.2-0.2-0.3-0.2c-0.2,0-0.3-0.1-0.5-0.1h-0.7
		L299.8,471.4L299.8,471.4z M296.7,458L296.7,458z M296.7,458h2v1.8h-2L296.7,458L296.7,458z M294.7,459.9h2v3.8h-2V459.9z
		 M296.7,461.8c0,0,1.5-0.9,2,0s0,3.8,0,3.8h-2L296.7,461.8L296.7,461.8z M294.7,464.6h2v1.8h-2V464.6z"/>
</g>
</svg>
